<svg width="289" height="289" viewBox="0 0 289 289" fill="none" xmlns="http://www.w3.org/2000/svg">
<g clip-path="url(#clip0)">
<path d="M197.8 161C198.8 159.5 199.6 159.5 201.5 159C202.8 158.6 203.1 159 203.2 159.4C203.5 160.3 202.3 161.8 201.8 162.6C200 165.9 196.9 168.2 194.9 171.3C192.1 175.6 190.8 177.3 189.8 182.5C188.5 188.9 189.5 197.6 190.7 203.6C191.9 209.4 191.1 216.8 190.8 220.7C190.4 224.6 191.4 227.6 191.8 231.1C192.4 235.7 193.7 240.2 195.6 244.3C198.4 250.5 202.2 256.2 208.5 259.4C210.6 260.5 213.7 261.8 214.8 262.1C216 262.4 217.3 262.6 216.9 263.3C216.5 264 215.6 265 213.9 265C212.5 265 210.4 264.1 208.4 263.4C204.4 262.2 201.4 260.3 198.6 257.5C195.1 254 192.5 249.8 190.8 245.2C189.2 240.7 187.8 236.2 187.3 231.3C186.5 223.8 186.7 220.2 186.9 212.5C187.1 204.8 185.9 199.5 185.2 193.1C184.5 186.8 185.7 179.2 187.1 175.6C188.2 172.8 189.9 170.4 191.8 168.2C192.3 167.4 196.1 163.4 197.8 161Z" fill="#1E1D1D"/>
<path d="M100.1 198.9C99.9999 202.1 100.2 205.3 98.6999 208.6C97.5999 211.1 97.3999 214.3 96.9999 217.2C96.2999 222.7 95.9999 228.2 95.3999 233.7C94.7999 238.9 94.2999 244.2 93.0999 249.4C92.1999 253.5 89.0999 257.7 85.8999 259C82.6999 260.4 82.6999 261 76.2999 262.1C74.6999 262.4 74.7999 262.6 72.0999 261.5C69.3999 260.4 71.7999 259 74.6999 258.6C78.9999 257.9 83.0999 256.1 85.2999 254.3C89.0999 251.3 89.7999 245.2 90.2999 239.6C90.7999 234 91.1999 229.7 91.3999 225.1C91.5999 219.1 92.2999 213.2 94.2999 207.4C95.9999 202.6 95.9999 197.4 95.9999 192.3C95.9999 187.4 95.4999 182.5 94.5999 177.6C93.7999 173.3 91.1999 170.2 87.4999 168.2C85.9999 167.4 85.3999 167 84.0999 165.9C82.8999 164.9 82.3999 163.1 82.3999 161.4C82.3999 159.6 83.8999 159.7 84.7999 160.5C87.5999 163 92.1999 165.4 94.6999 168.2C97.5999 171.6 99.1999 175.5 99.5999 180C100.1 183.9 100.3 193.8 100.1 198.9Z" fill="#1E1D1D"/>
<path d="M178.9 116.9C177.7 121.4 172.2 127.1 169.1 130C168.3 130.8 155.5 139.8 152.2 145.3C150.6 147.9 148.8 150.4 147.4 153.2C146 156.2 145.2 156.3 143.2 159C142.3 160.3 139.6 162.6 138.7 160.6C138 159 137.9 158.7 139.1 157.4C140.1 155.8 140.5 154.7 139 152C136.5 147.6 132.9 144.1 129.9 140.1C128.8 138.6 123.6 131.4 122.3 129.1C120.5 125.9 118.8 118.9 118.8 116.8C118.9 115.4 119.8 115.3 121.1 116.3C122.4 117.3 122.9 118.3 123.1 119.2C124.2 124.1 129.8 132.1 131.4 134.3C133.6 137.1 135.5 140.2 137.9 142.7C139.7 144.6 141.6 146.2 142.6 148.6C142.9 149.4 143.9 149.1 144.5 148.4C146.4 145.7 148.5 143.1 150.1 140.2C151.1 138.4 152.4 137.2 153.8 135.9C158.3 131.8 163.7 128.7 168 124.3C170.2 122.1 172.2 120.3 173.6 118.5C175 116.8 175 116.8 176.3 116.4C177.6 116 178.9 116.1 178.9 116.9Z" fill="#1E1D1D"/>
<path d="M135.1 191.8C135.3 198.8 131.3 205.4 124.8 208.1C119.7 210.2 116.9 213.6 116.7 219C116.7 220.3 116.7 220.8 116.5 222C116.2 223.4 116.2 223.6 114.3 224.5C112.4 225.4 112.6 222.6 112.4 220.9C112.2 219.2 112.4 215.2 113.7 212.2C114.8 209.8 116.6 207.8 118.9 206.3C121.4 204.7 123.8 203 126.4 201.6C128.3 200.6 129.4 198.5 130.1 196.4C130.5 195.1 129.9 194 128.3 193.9C127.4 193.8 126.5 193.6 125.6 193.5C124.1 193.3 123 193.7 123.2 195.6C123.3 196.9 122.6 197.6 121.3 197.7C118.8 197.9 117.8 197 115.2 200.6C113.3 202.6 111.5 202.5 110.2 201.8C108.9 201 109.4 200.5 110.8 199.2C112.3 197.8 113.4 196.5 114.5 194.7C117.3 190.3 121.7 188.1 127.1 189C128 189.2 129.2 189.8 129.4 188.6C129.6 187.6 129.8 187.1 127.9 185.8C126 184.4 124 184 120.7 184.3C117.4 184.6 116.7 185.7 114.3 187.2C113.2 187.9 112.7 187.9 110.8 187.8C109.3 187.7 108.4 186.1 109.2 185.3C113.5 181.4 119.3 179.4 124.7 179.9C130.5 180.6 135.3 184 135.1 191.8Z" fill="#1E1D1D"/>
<path d="M124.3 169.7C122.9 169.7 121.8 169 120.6 168.2C116.9 165.5 113.4 162.6 109.5 160.1C104.7 157.1 99.0999 155.6 94.6999 151.9C91.6999 149.3 86.2999 143.4 83.6999 140.3C82.7999 138.9 82.9999 137.1 85.0999 137.6C86.7999 138 88.3999 138.1 89.9999 140.3C92.0999 143 94.0999 145.9 98.2999 149.2C100.4 150.9 103.2 151.6 105.6 152.7C109.9 154.8 114.1 157.2 118 160.1C118.6 160.5 119.1 161.3 120 160.7C120.9 160.1 119.4 156.6 119.2 155.6C118.3 152 116.1 148.7 114.3 145.4C112.5 142.1 111.3 139.4 109.9 136.1C109.2 134.6 109.5 133.6 110.5 132.2C111.3 131 112.6 130.1 113.1 132C113.9 134.8 118.1 143.7 120.7 147.6C123.2 151.4 124.8 156.6 125.2 158.5C125.6 160.7 126.6 163.2 127.4 164.8C128.6 167.6 127.3 169.7 124.3 169.7Z" fill="#1E1D1D"/>
<path d="M137.5 223.8C135.1 221.4 132.9 223.4 129.8 222.6C128 222.1 126.6 221 126.2 218.5C125.5 214.6 127.1 210.9 127.8 209.6C130.8 205.3 132.5 211.1 131.7 212.3C130.6 214.1 129.9 215.4 130.2 217C130.4 218.4 132.3 219 133.5 218.6C135.2 218 136.8 218.2 138.2 219.3C140.8 221.2 143.4 221.7 146.2 219.7C147.5 218.8 148.1 218.5 149.7 218.2C152 217.9 153.1 216.8 151.8 214.8C151.1 213.8 150.4 212.8 149.7 211.9C148.1 209.7 148.1 207.3 149.4 205.4C150.3 204.2 152 203.5 153.2 203.6C157.5 203.8 161 206.5 162.5 208C164.1 209.7 165.5 212.2 166.5 213.9C167.8 216.3 168.4 218.4 169.6 220.7C169.9 221.3 170.1 221.9 170.2 222.5C170.4 223.6 166.8 224.6 164.8 220.8C163 217.3 161.2 212.5 159.6 210.6C158.3 209.1 157.3 208.4 156.7 208.1C155.8 207.7 154 207.2 153.4 208.2C152.9 209 154.5 211.9 155.4 213C156.3 214.1 157.3 216.3 156.5 218.8C155.7 221.2 152.8 221.1 150.5 221.9C149.1 222.4 148.2 223.5 146.7 224.4C144.7 225.7 140 226.2 137.5 223.8Z" fill="#1E1D1D"/>
<path d="M154.8 269.4C156.6 271.3 161.1 271.4 167.2 272.3C173.3 273.2 178.6 275.7 180.1 276.8C180.9 277.3 180.6 278.2 179.6 278.5C178.2 278.9 176.2 278.9 175 278.6C172.5 277.9 171.3 277.5 168.3 277C163.8 276.3 159.2 276 154.8 274.9C153 274.5 151 273.3 150.1 271.6C149.4 270.2 148.5 269.5 147.1 269.3C143.4 268.7 139.9 268 137.2 271.8C135.4 274.3 128.7 275.6 123.1 276.5C117.4 277.5 116.9 277.6 115.2 277.8C113.5 277.9 113 277.9 111.8 277.6C110.1 277.2 109.2 275.6 110.9 275.2C112.6 274.8 110.5 275.5 114.8 274.1C119.1 272.7 123.1 271.9 127.4 271.7C129.9 271.5 132.3 270.6 134.2 268.3C136 266.1 138.6 264.5 141.3 264.3C146.4 263.7 152.2 265.4 154.8 269.4Z" fill="#1E1D1D"/>
<path d="M165.3 163C164.7 163.2 164 163.2 163.4 163.1C161.9 162.7 161 161.3 161.4 159.8C162.2 157 165.7 151.2 166.9 148.5C168.4 145.1 172 139.5 174.5 137.8C175.8 136.9 177.3 139.8 176.2 141.4C174.6 143.8 173 146.1 171.4 148.4C170.3 150.7 169.3 153 168.4 155.6C168 156.1 169 156.4 169.6 156.2C173.8 154.4 178.5 154.1 182.3 151.4C186.6 148.3 191.9 143.4 193.9 140.9C195.9 138.4 196.7 137.6 198.8 137.4C200.9 137.2 201.4 138.1 200.9 138.7C199 141.1 194.2 147.5 190.5 150.7C186.8 153.9 179.7 158.4 173.3 160C171.2 160.5 169.1 161 167.1 162.1C166.6 162.5 165.9 162.8 165.3 163Z" fill="#1E1D1D"/>
<path d="M161.2 180.2C166.2 180.2 171.3 182.3 174.8 186.5C175.8 187.8 173 188.3 172.2 188.3C171.1 188.2 170.2 187.5 169.8 187.1C166.6 183.7 163.5 184.2 159.9 184.6C156.3 185.1 155.2 185.9 154.5 187.8C154.2 188.7 153.8 189.4 154.3 190.1C154.8 190.8 155.6 190.8 156.4 190.6C157.9 190.2 159.3 189.7 161.8 189.7C164.5 189.8 168.5 192.4 169.9 194.6C171.3 196.8 171.8 197 173.7 198.6C175.5 200.2 176.3 200.3 176 201C175.6 201.7 174.5 201.9 173.9 202C173.2 202.1 172.6 201.8 171.9 201.5C169.7 200.6 169.7 200 168.1 198.9C166.6 197.9 166 198.5 165.2 198.5C163.4 198.4 162.5 197.9 162 196.9C161.5 195.8 161.7 195.3 161.4 194.7C160.9 193.9 160.3 193.9 158.5 194.7C157.2 195.3 156.4 195.3 155.3 195.3C152 195.3 150.2 193.6 150.1 190.4C150.1 189.9 149.7 186.1 152 183.2C153.9 181 156.2 180.2 161.2 180.2Z" fill="#1E1D1D"/>
<path d="M199.9 272.5C194.3 271.5 188.7 271.1 183.3 269.3C179.5 268 176.1 266.1 173.4 263.3C171.6 261.4 169.5 259.7 168.6 257C168.2 255.8 168.5 255.2 169.1 254.1C170 252.5 171.2 252.9 172 254.4C173.4 256.9 175.8 259.1 178 261C181.6 264 185.7 265.5 190.2 266.2C195.3 266.8 204.3 269.7 208.8 270.1C212 270.4 211.9 270.4 213.4 270.6C215.7 270.6 217.4 272.1 214.5 273.3C213.6 273.7 213 274 211.7 274C208.9 274.2 203.3 273.1 199.9 272.5Z" fill="#1E1D1D"/>
<path d="M117.7 258.6C117.7 260.1 117.5 260.6 116.5 261.5C111.7 265.8 105 267.8 98.8998 267.9C94.4998 268 90.6998 269.9 86.7998 271.3C83.6998 272.4 82.0998 272.7 79.1998 274.1C78.0998 274.5 76.6998 274.3 74.8998 274C73.0998 273.7 74.8998 271.8 76.8998 270.7C80.5998 268.8 88.4998 266.1 89.4998 265.6C92.8998 263.8 96.5998 263.2 100.2 263.1C103.6 263 107.2 262.1 110.3 260.4C112.2 259.3 113.6 258.3 115.7 256.5C116.8 255.5 117.7 257.1 117.7 258.6Z" fill="#1E1D1D"/>
<path d="M127.7 234C130.9 233.1 137.3 232.5 139.6 233.7C141.2 234.5 142.6 234.8 143.9 234.2C150.6 231.3 156.9 232.3 163.1 235.5C164 235.9 166.1 236.7 164.8 237.9C163.4 239 162 238.8 160.5 238.4C157 237.2 152.3 235.8 149.1 237.1C145.1 238.7 142.2 239.2 138.4 238C135.2 237 132.5 237.2 129.2 238.1C127.1 238.7 126.6 239 124.7 239.5C122.8 240 121.8 240 120.4 239.4C119 238.8 120.1 237.9 120.7 237.3C122.2 236 124.5 234.9 127.7 234Z" fill="#1E1D1D"/>
<path d="M154.8 243.8C156.4 244.3 155.3 245.8 153.4 246.3C151.9 246.7 149.7 246.9 149.1 247.2C145.8 248.8 142.5 249.4 139.1 249.1C136.4 248.8 133.2 246.8 131.3 244.9C130.4 243.9 130.2 242.2 132.5 242.5C134.7 242.8 134.6 242.9 135.5 243.3C138.6 244.8 140.9 246 144.8 244.5C147.4 243.5 148.7 243.3 151.5 243.4C152.8 243.3 153.5 243.3 154.8 243.8Z" fill="#1E1D1D"/>
<path d="M207.2 140.1C208.9 140.1 210.9 142.3 210.8 144.1C210.7 145.6 209.3 147.3 208.2 147.3C206.7 147.3 204.4 144.6 204.4 142.9C204.4 141.1 205.4 140.1 207.2 140.1Z" fill="#1E1D1D"/>
<path d="M98.5999 132.5C98.4999 134.1 96.8999 136 95.3999 135.9C93.7999 135.9 92.5999 134.5 92.5999 132.8C92.6999 131 94.2999 129.4 95.9999 129.4C97.4999 129.6 98.5999 130.9 98.5999 132.5Z" fill="#1E1D1D"/>
<path d="M147 108.7C148.6 108.7 149.7 109.4 149.8 111.1C149.9 113 148.1 115.1 146.5 115.1C145 115.1 143.4 113.6 143.4 112.2C143.5 110.2 145.1 108.7 147 108.7Z" fill="#1E1D1D"/>
<path d="M182.2 143.4C181.5 143.4 178.9 142.3 178.9 140.5C178.9 138.7 180.9 137.5 182 137.5C183.8 137.5 185.6 139.1 185.8 140.5C185.8 141.4 184 143.3 182.2 143.4Z" fill="#1E1D1D"/>
<path d="M177.2 112.6C177.5 109.9 178.3 108.5 180.9 109C182.3 109.3 182.6 110.3 182.7 111.3C182.8 112.2 182.7 113.4 181.4 113.7C180.3 114 179.1 114.3 178 114.3C177.1 114.3 177.2 113.3 177.2 112.6Z" fill="#1E1D1D"/>
<path d="M112.1 125.4C110.3 125.6 109.6 124.2 109.4 122.7C109.2 121.2 111 119.4 112.6 119.4C114.3 119.4 116.1 121.2 116 122.8C115.9 124.3 114.3 125.4 112.1 125.4Z" fill="#1E1D1D"/>
<path d="M202.5 156C202.5 154.4 203.9 153.2 205.7 153.2C207.1 153.2 208.5 155.1 208.5 156.9C208.5 158.7 207.3 159.3 205.7 159.4C203.7 159.4 202.5 158.1 202.5 156Z" fill="#1E1D1D"/>
<path d="M137.4 125.9C138.8 126.3 140.2 126.5 140.2 128.5C140.1 130.7 138.8 132.4 137.2 132.3C135.4 132.2 134.7 131 134.6 128.2C134.5 126.1 136.1 126.3 137.4 125.9Z" fill="#1E1D1D"/>
<path d="M155.5 112.1C155.7 110.3 155.5 108.5 157.6 108.5C159.4 108.5 160.7 110.2 160.5 112.2C160.3 113.9 158.9 114.9 157.7 114.6C155.9 114.1 155.5 113.4 155.5 112.1Z" fill="#1E1D1D"/>
<path d="M186.6 129.9C186.8 131.4 186.6 132.8 184.3 132.9C182.9 132.9 181 130.6 181 129.1C181.1 127.8 182.6 126.4 184.1 126.4C186.1 126.4 186.6 127 186.6 129.9Z" fill="#1E1D1D"/>
<path d="M177.3 102.6C177.4 103.9 177.3 105.2 175.3 105.2C174.1 105.2 172.4 103.2 172.4 101.9C172.5 100.7 173.8 99.5 175.1 99.5C176.9 99.5 177.3 100.1 177.3 102.6Z" fill="#1E1D1D"/>
<path d="M102.3 138.3C102.5 137.3 102.3 135.7 104.5 135.8C106.1 135.9 108.3 137.5 108.2 138.7C108.1 140.5 106.7 141.8 105 141.8C102.9 141.7 102.3 141 102.3 138.3Z" fill="#1E1D1D"/>
<path d="M71.1999 167.3C68.8999 167.4 67.6999 166.7 67.6999 164.8C67.5999 163 68.7999 161.7 70.3999 161.7C71.8999 161.7 74.1999 163.7 73.9999 165.2C73.7999 167.2 72.0999 167.2 71.1999 167.3Z" fill="#1E1D1D"/>
<path d="M194.8 129.1C196.6 129.1 197.6 130.1 197.6 132C197.6 133.7 196.3 135.1 194.6 135.1C193 135.1 191.6 133.9 191.6 132.4C191.7 130.7 193.2 129.1 194.8 129.1Z" fill="#1E1D1D"/>
<path d="M206.6 133.9C206.8 136.2 205.9 136.5 203.6 136.8C202.3 137 201.3 136.2 201.2 134.8C201.1 133 202.9 130.5 204.2 130.6C206.3 130.7 206.4 132.3 206.6 133.9Z" fill="#1E1D1D"/>
<path d="M79.3 153.8C79.1 154.8 79.4 156.4 77.5 156.6C75.3 156.7 73.8 155.5 73.8 153.8C73.8 152.3 75.2 150.7 76.7 150.7C78.2 150.5 79.3 151.7 79.3 153.8Z" fill="#1E1D1D"/>
<path d="M98.5999 111.8C98.3999 112.8 98.6999 114.4 96.7999 114.6C94.5999 114.7 93.0999 113.5 93.0999 111.8C93.0999 110.3 94.4999 108.7 95.9999 108.7C97.4999 108.6 98.4999 109.8 98.5999 111.8Z" fill="#1E1D1D"/>
<path d="M107.6 128.1C107.6 130.3 105.9 132.2 104.4 132.1C103.2 132 101.6 131.8 101.6 129.9C101.6 128.7 104 126.1 105.1 126.3C106.5 126.4 107.6 127 107.6 128.1Z" fill="#1E1D1D"/>
<path d="M156.4 135.1C154.6 135.1 152.5 133.4 152.5 132.1C152.5 130.5 153.7 129.4 155.4 129.5C157 129.5 158.6 131.1 158.4 132.7C158.3 133.8 158.2 135.4 156.4 135.1Z" fill="#1E1D1D"/>
<path d="M104.5 116.1C105.8 116.1 107.7 118.1 107.5 119.6C107.4 120.7 107 121.9 105.6 122C103.8 122.1 101.9 120.2 102 118.4C102.1 116.9 102.8 116 104.5 116.1Z" fill="#1E1D1D"/>
<path d="M106.6 109.2C107.9 109.2 109.8 111.2 109.6 112.7C109.5 113.8 109.1 115 107.7 115.1C105.9 115.2 104 113.3 104.1 111.5C104.1 110 104.8 109.1 106.6 109.2Z" fill="#1E1D1D"/>
<path d="M112.1 154.4C112.1 153 113.8 151.3 115.1 151.5C116.8 151.7 117.4 153.2 117.4 154.6C117.4 155.8 117.3 157.5 115.3 157.5C113.3 157.4 112 156.3 112.1 154.4Z" fill="#1E1D1D"/>
<path d="M190 135.7C191.4 135.7 193.3 137.6 193.2 139.1C193.1 140.7 191.8 141.1 190.5 141.2C189.1 141.3 187.2 139.4 187.3 138.2C187.2 136.7 188.4 135.7 190 135.7Z" fill="#1E1D1D"/>
<path d="M143.3 134.9C144.7 134.9 146.6 136.8 146.5 138.3C146.4 139.9 145.1 140.3 143.8 140.4C142.4 140.5 140.5 138.6 140.6 137.4C140.5 136 141.7 134.9 143.3 134.9Z" fill="#1E1D1D"/>
<path d="M178.5 152.8C177.2 152.8 175.3 151.1 175.3 149.9C175.3 148.9 177.3 146.5 178.3 146.7C179.9 147 180.8 148.2 180.8 149.7C180.6 150.9 180.7 152.8 178.5 152.8Z" fill="#1E1D1D"/>
<path d="M80.5 142.2C80.4 143.1 80.4 144.5 78.6 144.6C76.7 144.6 75.1 143.3 75 141.7C74.9 140.2 76.1 139 77.6 139.1C79.6 139.1 80.6 140.1 80.5 142.2Z" fill="#1E1D1D"/>
<path d="M191 119.5C192.8 119.5 194.7 121.4 194.5 122.6C194.3 123.8 193.8 125.1 192.3 125.3C190.9 125.4 188.6 123.1 188.8 121.6C189 120.2 189.9 119.3 191 119.5Z" fill="#1E1D1D"/>
<path d="M145.8 126.2C147.6 126.2 149.5 128.1 149.3 129.3C149.1 130.5 148.6 131.8 147.1 132C145.7 132.1 143.4 129.8 143.6 128.3C143.8 126.9 144.7 126.1 145.8 126.2Z" fill="#1E1D1D"/>
<path d="M115 140.8C116.9 140.6 117.2 142.1 117.2 143.4C117.2 145 116.3 146.2 114.7 146.6C114 146.8 111.8 144.3 111.8 143.4C111.7 141.9 113.1 140.7 115 140.8Z" fill="#1E1D1D"/>
<path d="M89.4 131.6C89.5 133.2 88.6 133.9 87.1 133.9C85.4 133.9 84.2 132.6 84.2 130.7C84.2 129.3 84.9 128.2 86.3 127.9C87.5 127.7 89.4 130 89.4 131.6Z" fill="#1E1D1D"/>
<path d="M200.1 145.8C202.1 145.8 203 146.8 203 148.9C203 150.4 202.3 151.3 200.8 151.4C199.3 151.4 197.5 149.2 197.5 147.5C197.5 146.2 198.2 145.8 200.1 145.8Z" fill="#1E1D1D"/>
<path d="M148.3 99.3C150.1 99 150.6 100.4 150.7 101.8C150.9 103.4 149.7 104.4 147.9 104.4C146.5 104.4 145.2 103.9 145 102.3C144.8 100.8 146.5 99.3 148.3 99.3Z" fill="#1E1D1D"/>
<path d="M148.3 118.1C150.1 117.8 150.6 119.2 150.7 120.6C150.9 122.2 149.7 123.2 147.9 123.2C146.5 123.2 145.2 122.7 145 121.1C144.8 119.6 146.5 118.1 148.3 118.1Z" fill="#1E1D1D"/>
<path d="M164.8 115.2C167 115.2 168.7 116.5 168.6 117.9C168.5 119.3 167.9 120.5 166.3 120.7C164.8 120.9 163.3 119.2 163.2 117.4C163.1 116 163.5 115.1 164.8 115.2Z" fill="#1E1D1D"/>
<path d="M94.4999 140.9C96.6999 140.9 98.3999 142.2 98.2999 143.6C98.1999 145 97.5999 146.2 95.9999 146.4C94.4999 146.6 92.9999 144.9 92.8999 143.1C92.7999 141.7 93.2999 140.8 94.4999 140.9Z" fill="#1E1D1D"/>
<path d="M156.5 125.3C154.9 125 154.3 123.9 154.3 122.4C154.2 120.6 155.3 119.9 156.8 119.5C157.7 119.3 159.8 121.7 159.6 122.8C159.4 124.5 158.2 125.1 156.5 125.3Z" fill="#1E1D1D"/>
<path d="M183.4 122.1C181.8 122.2 180.8 121.4 180.7 119.9C180.6 118.8 182.9 117 184.2 117C185.9 117 186.4 118.2 186.6 119.4C186.7 120.9 185.2 122 183.4 122.1Z" fill="#1E1D1D"/>
<path d="M172.4 110.9C172.5 112.3 171.3 112.8 169.9 113C168.5 113.1 167.1 111.4 167.3 110C167.5 108.6 167.9 107.3 169.7 107.3C171 107.3 172.4 109 172.4 110.9Z" fill="#1E1D1D"/>
<path d="M122.5 107.2C124.7 106.9 124.8 108.7 124.9 110C125 111.2 124.1 112.2 122.4 112.6C121.4 112.8 119.8 110.7 119.9 109.4C120 107.8 121.1 107.3 122.5 107.2Z" fill="#1E1D1D"/>
<path d="M198.8 127.4C197.1 127.2 196.6 126.3 196.9 124.6C197.2 122.9 198 122 199.7 122.4C201.1 122.7 202.3 123.5 202 125.3C201.7 126.9 200.5 127.7 198.8 127.4Z" fill="#1E1D1D"/>
<path d="M131.8 108C130.6 107.8 129.2 107.5 129.1 105.6C129.1 104 130.3 102.8 132.1 102.8C133.7 102.8 134.3 103.9 134.5 105.2C134.8 106.4 133.2 108 131.8 108Z" fill="#1E1D1D"/>
<path d="M128.1 117.3C128.2 116 128.2 114.6 130 114.6C131.6 114.5 132.9 115.7 132.8 117.3C132.7 119 131.4 120.3 130.1 120.4C128.5 120.6 128.2 118.8 128.1 117.3Z" fill="#1E1D1D"/>
<path d="M141.3 108.7C141.3 110.8 140.6 111.9 138.9 111.9C137.5 111.9 136.3 111.2 136.2 109.5C136.1 107.9 137.4 106.6 139.1 106.6C140.6 106.7 141.4 107.5 141.3 108.7Z" fill="#1E1D1D"/>
<path d="M114.8 114.9C113.1 114.9 111.7 113.3 111.7 111.6C111.7 109.8 113.2 109.7 114.4 109.5C115.4 109.3 116.8 111.4 116.8 113C116.8 114.4 115.7 114.7 114.8 114.9Z" fill="#1E1D1D"/>
<path d="M117.7 105.7C116 105.7 114.6 104.1 114.6 102.4C114.6 100.6 116.1 100.5 117.3 100.3C118.3 100.1 119.7 102.2 119.7 103.8C119.7 105.2 118.6 105.5 117.7 105.7Z" fill="#1E1D1D"/>
<path d="M212.1 150.2C211.3 148.7 212.1 146.7 213.7 146C215.3 145.2 216.1 146.5 216.8 147.4C217.5 148.2 216.2 150.5 214.8 151.2C213.4 151.8 212.7 150.9 212.1 150.2Z" fill="#1E1D1D"/>
<path d="M193.1 117.1C191.4 117.1 190 115.5 190 113.8C190 112 191.5 111.9 192.7 111.7C193.7 111.5 195.1 113.6 195.1 115.2C195.1 116.6 194 116.9 193.1 117.1Z" fill="#1E1D1D"/>
<path d="M79.1 163.1C78.1 162.7 76.5 163.1 76.5 160.5C76.5 158.4 77.4 157.4 78.9 157.4C80.4 157.4 81.7 158.1 81.8 160.4C81.8 162.8 80.4 162.9 79.1 163.1Z" fill="#1E1D1D"/>
<path d="M136.2 120C136.2 118.6 136.9 117.5 138.5 117.4C139.7 117.2 141.3 118.8 141.3 120C141.3 121.1 139.5 122.5 138.1 122.5C136.5 122.4 136.2 121.3 136.2 120Z" fill="#1E1D1D"/>
<path d="M107.1 150.9C105.7 150.5 104.2 150.2 104.3 148.5C104.4 147.1 105.2 146.1 106.8 146.2C108.5 146.2 109.2 147.4 109.3 148.8C109.5 150.4 108.2 150.6 107.1 150.9Z" fill="#1E1D1D"/>
<path d="M160.8 106.3C159.4 105.9 157.9 105.6 158 103.9C158.1 102.5 158.9 101.5 160.5 101.6C162.2 101.6 162.9 102.8 163 104.2C163.2 105.8 161.9 106 160.8 106.3Z" fill="#1E1D1D"/>
<path d="M97.0001 120.7C99.1001 120.5 99.5001 122.2 99.6001 123.4C99.7001 124.5 98.6001 125.4 97.4001 125.7C96.5001 125.9 94.5001 123.5 94.6001 122.4C94.9001 121 95.8001 120.5 97.0001 120.7Z" fill="#1E1D1D"/>
<path d="M87.6999 94.1C87.6999 95.6 86.0999 97.2 84.8999 97.2C83.4999 97.2 82.2999 95.9 82.3999 94.4C82.4999 92.8 83.8999 91.3 85.3999 91.4C86.7999 91.4 87.6999 92.6 87.6999 94.1Z" fill="#1E1D1D"/>
<path d="M181.6 105.1C181.6 103.6 182.9 102.4 184.6 102.4C185.9 102.4 187.3 104.2 187.2 105.9C187.2 107.6 186 108.2 184.6 108.3C182.8 108.3 181.6 107.1 181.6 105.1Z" fill="#1E1D1D"/>
<path d="M84.9 104.1C84.9 105.1 83.7 106.7 82.7 106.7C81.6 106.7 80.5 105.5 80.5 104.2C80.5 102.9 81.9 101.2 83 101.3C84.2 101.4 84.8 102.3 84.9 104.1Z" fill="#1E1D1D"/>
<path d="M67.8 158.7C65.3 158.8 64.1 158.1 64 156.1C63.9 154.2 65.2 152.8 66.9 152.7C68.6 152.7 71 154.8 70.8 156.5C70.6 158.6 68.8 158.6 67.8 158.7Z" fill="#1E1D1D"/>
<path d="M70.2999 114.2C71.8999 114.2 72.7999 115.1 72.8999 116.9C72.8999 118.5 71.6999 119.7 70.1999 119.7C68.7999 119.7 67.4999 118.6 67.4999 117.3C67.3999 115.7 68.7999 114.3 70.2999 114.2Z" fill="#1E1D1D"/>
<path d="M85.0999 122.2C84.8999 123.3 85.1999 125 83.0999 125.2C80.7999 125.3 79.0999 124 79.0999 122.2C79.0999 120.6 80.5999 118.9 82.1999 118.8C83.8999 118.7 85.0999 120 85.0999 122.2Z" fill="#1E1D1D"/>
<path d="M190.7 92.3C189.7 92 188.7 91.7 188.6 89.9C188.5 88.1 189.6 86.9 191.3 86.9C193.4 86.9 193.5 88.3 193.6 89.8C193.8 92 191.7 92.6 190.7 92.3Z" fill="#1E1D1D"/>
<path d="M202 99.4001C202 101.4 200.9 103 199.5 102.8C197.9 102.6 196.6 101.9 196.3 100.1C196.1 98.9001 198.3 96.6001 199.5 96.7001C200.8 96.9001 202.2 97.5001 202 99.4001Z" fill="#1E1D1D"/>
<path d="M157.5 91C157.5 89.5 159.2 87.8 160.7 88C162.5 88.2 163.1 89.7 163.1 91.2C163.1 92.4 162.9 94.2 160.9 94.2C158.8 94.1 157.5 92.9 157.5 91Z" fill="#1E1D1D"/>
<path d="M224.7 130.3C225.9 131.3 226.2 134.2 225 135.3C223.8 136.5 222.5 136 221.3 135.2C220.1 134.4 219.8 131.5 220.7 130.5C221.8 129.3 223.4 129.2 224.7 130.3Z" fill="#1E1D1D"/>
<path d="M213.5 112.9C211.9 112.9 210.4 111 210.4 109.1C210.4 107.5 211.1 106.6 212.6 106.5C213.9 106.3 216.5 109 216.4 110.4C216.2 112 215.2 112.8 213.5 112.9Z" fill="#1E1D1D"/>
<path d="M77.8 137.2C76.4 137.2 74.4 135.4 74.3 134.1C74.3 133 76.5 130.5 77.5 130.6C79.2 130.9 80.2 132.2 80.1 133.8C80.1 135.2 80.2 137.2 77.8 137.2Z" fill="#1E1D1D"/>
<path d="M128.7 98.2C128.8 99.1 129.3 100.3 127.6 100.8C125.9 101.4 124.1 100.7 123.6 99.2C123.1 97.9 123.8 96.5 125.2 96.1C126.9 95.7 128.1 96.3 128.7 98.2Z" fill="#1E1D1D"/>
<path d="M212.7 129.6C214.6 129.6 216.7 131.6 216.4 133C216.2 134.3 215.6 135.7 214 135.9C212.5 136.1 210 133.5 210.3 131.9C210.5 130.4 211.5 129.5 212.7 129.6Z" fill="#1E1D1D"/>
<path d="M90.8 97.3C92.4 97.3 93.6 98.7 93.5 100.8C93.4 102.4 92.5 103.8 90.7 103.7C88.8 103.7 88.2 102.3 88.1 100.7C88 98.7 89.1 97.3 90.8 97.3Z" fill="#1E1D1D"/>
<path d="M68.9999 131C69.0999 132.8 68.0999 133.5 66.4999 133.5C64.6999 133.5 63.3999 132.1 63.3999 130.1C63.3999 128.5 64.0999 127.4 65.5999 127.1C66.9999 126.7 68.9999 129.2 68.9999 131Z" fill="#1E1D1D"/>
<path d="M154.1 93.8C156.2 93.8 157.2 94.9 157.2 97.1C157.2 98.8 156.4 99.7 154.8 99.7C153.2 99.7 151.2 97.4 151.3 95.5C151.3 94.2 152.1 93.7 154.1 93.8Z" fill="#1E1D1D"/>
<path d="M70.8999 125.2C70.9999 123.4 71.7999 122.4 73.6999 122.3C75.3999 122.2 76.4999 123.7 76.5999 125.7C76.6999 127.9 75.0999 128.2 73.5999 128.3C71.5999 128.3 70.8999 127 70.8999 125.2Z" fill="#1E1D1D"/>
<path d="M210.7 114.4C212.4 114.1 212.8 115.6 213 117.1C213.2 118.8 212.1 119.9 210.4 119.9C209.1 119.9 207.9 119.4 207.7 117.6C207.5 116 209.1 114.4 210.7 114.4Z" fill="#1E1D1D"/>
<path d="M62.3 149.1C60.6 148.8 60 147.6 59.9 145.9C59.8 144 61.4 143.1 63.2 143.1C65 143.1 65.8 145.2 65.6 146.3C65.4 148.2 64.1 148.9 62.3 149.1Z" fill="#1E1D1D"/>
<path d="M132.6 94.3C130.9 94.4 129.8 93.6 129.6 91.9C129.5 90.7 131.9 88.8 133.3 88.8C135.1 88.8 135.7 90 135.8 91.4C136.1 93.1 134.5 94.3 132.6 94.3Z" fill="#1E1D1D"/>
<path d="M217.2 158.3C217.3 159.8 216 160.4 214.5 160.5C213 160.6 211.5 158.8 211.6 157.3C211.8 155.8 212.3 154.4 214.2 154.4C215.6 154.4 217.2 156.3 217.2 158.3Z" fill="#1E1D1D"/>
<path d="M125.1 92.4C125.2 93.9 123.9 94.5 122.4 94.6C120.9 94.7 119.4 92.9 119.5 91.4C119.7 89.9 120.2 88.5 122.1 88.5C123.6 88.6 125.2 90.4 125.1 92.4Z" fill="#1E1D1D"/>
<path d="M112.3 89.9C110.8 89 110.7 87.7 111.5 86.2C112.5 84.3 114.3 83.4 115.4 84.2C117.3 85.4 116.5 87.1 115.8 88.6C115.1 90.1 113.9 90.6 112.3 89.9Z" fill="#1E1D1D"/>
<path d="M208.6 128.6C206.7 128.7 206.1 127.8 206.1 126C206.1 124.1 206.8 123.1 208.7 123.1C210.3 123.2 211.7 123.8 211.7 125.7C211.6 127.5 210.4 128.6 208.6 128.6Z" fill="#1E1D1D"/>
<path d="M94.8 90.1C95 88.9 95.8 87.8 97.4 88C98.9 88.2 100.5 88.7 100.2 90.5C100 91.9 99.9 93.8 97.7 93.9C96.2 93.9 94.8 92.1 94.8 90.1Z" fill="#1E1D1D"/>
<path d="M219.9 124.9C220 126.4 219.6 127.5 217.8 127.5C216.5 127.5 214.2 125.4 214.4 124.1C214.6 122.6 215.3 121.5 217 121.5C218.8 121.6 219.8 122.8 219.9 124.9Z" fill="#1E1D1D"/>
<path d="M169.3 90C168.1 89.6 166.6 89.1 166.8 87.2C166.9 85.5 168.4 84.5 170.2 84.7C171.9 84.9 172.4 86.1 172.4 87.5C172.5 88.7 170.7 90.2 169.3 90Z" fill="#1E1D1D"/>
<path d="M80.5999 111.1C80.5999 112.7 78.9999 114.4 77.4999 114.5C76.0999 114.6 74.5999 113.3 74.5999 112C74.5999 110.6 76.3999 108.9 77.8999 108.9C79.6999 108.9 80.3999 109.8 80.5999 111.1Z" fill="#1E1D1D"/>
<path d="M108.2 91.8C108.2 93.4 106.6 95.1 105.1 95.2C103.7 95.3 102.2 94 102.2 92.7C102.2 91.3 104 89.6 105.5 89.6C107.2 89.5 108 90.5 108.2 91.8Z" fill="#1E1D1D"/>
<path d="M183.5 91.4C184.7 91.4 186.8 93.4 186.6 94.7C186.4 96.2 185.2 97 183.7 97C182 97 180.7 95.7 180.8 93.9C180.8 92.5 182 91.4 183.5 91.4Z" fill="#1E1D1D"/>
<path d="M104.8 103.1C104.8 101.1 106.4 99.7001 108.2 99.7001C109.8 99.7001 110.5 100.8 110.7 102.1C110.9 103.4 109 105.2 107.5 105.1C105.9 105.1 105 104.2 104.8 103.1Z" fill="#1E1D1D"/>
<path d="M137 87.2001C137.1 85.8001 137.1 84.3001 139.1 84.3001C140.9 84.2001 142.3 85.5001 142.1 87.2001C142 89.0001 140.6 90.4001 139.2 90.5001C137.4 90.6001 137.1 88.8001 137 87.2001Z" fill="#1E1D1D"/>
<path d="M128.3 88.2C126.4 88.2 125 86.5 125 84.6C125 82.7 126.6 82.6 127.9 82.3C129 82 130.5 84.4 130.5 86.1C130.5 87.7 129.3 88 128.3 88.2Z" fill="#1E1D1D"/>
<path d="M192.3 109.2C191.2 108.6 190.6 107.8 191.1 106.5C191.7 105.1 194.1 104.4 195.7 105.1C197.2 105.8 197.5 106.9 196.9 108.2C196.1 109.7 194.1 110.1 192.3 109.2Z" fill="#1E1D1D"/>
<path d="M152 84.4C153.7 84.5 155.5 86.3 155.2 87.5C154.8 88.8 154.7 90.5 152.6 90.4C151.3 90.3 149.6 88.3 149.8 86.8C150 85.3 150.9 84.4 152 84.4Z" fill="#1E1D1D"/>
<path d="M70.8 149.6C69.5 149.3 67.7 149.6 67.7 147.5C67.7 145.8 68.8 145 70.5 145C72.3 145 73.8 145.6 73.9 147.5C74.1 149.4 72.4 149.5 70.8 149.6Z" fill="#1E1D1D"/>
<path d="M201.2 107.8C201.6 106.4 202.1 105.2 203.8 105.1C204.9 105 206.6 107 206.5 108.1C206.4 109.6 204.6 111.3 203.2 111C201.4 110.7 201.7 109 201.2 107.8Z" fill="#1E1D1D"/>
<path d="M182.8 88.3C182.6 89.7 181.8 90.5 180.4 90.6C178.6 90.7 176.7 89.2 176.8 87.9C177 86.2 178.2 85.5 179.8 85.5C181.7 85.4 182.4 86.7 182.8 88.3Z" fill="#1E1D1D"/>
<path d="M173.2 92.7001C174.4 92.7001 175.7 93.6001 175.7 94.9001C175.8 96.6001 174.2 97.7001 172.8 97.7001C171.2 97.7001 170.6 96.7001 170.5 95.2001C170.5 93.8001 171.6 92.7001 173.2 92.7001Z" fill="#1E1D1D"/>
<path d="M71.4999 138.8C71.5999 140.6 70.2999 141.3 68.9999 141.5C67.5999 141.7 65.9999 139.9 66.0999 138.3C66.1999 136.9 66.8999 135.9 68.5999 136C70.3999 136.2 71.3999 137 71.4999 138.8Z" fill="#1E1D1D"/>
<path d="M87.5 112.6C85.9 112.4 84.6 111.9 84.4 110.1C84.3 108.8 86.1 106.9 87.4 107.2C88.6 107.4 90 107.9 89.9 109.6C89.7 111.1 89.2 112.3 87.5 112.6Z" fill="#1E1D1D"/>
<path d="M144.8 95.2C143.2 95.2 142.2 94.7 142.3 93C142.3 91.3 143 90.1 144.8 90.2C146.3 90.2 147.7 90.8 147.8 92.6C147.8 94.5 146.4 95.1 144.8 95.2Z" fill="#1E1D1D"/>
<path d="M214.4 140.1C214.4 138.6 215.1 137.5 216.8 137.2C218.1 137 219.8 138.7 219.8 140C219.8 141.2 217.9 142.7 216.3 142.7C214.7 142.7 214.5 141.5 214.4 140.1Z" fill="#1E1D1D"/>
<path d="M201.4 118.6C199.4 118.5 198 117.6 197.9 116C197.8 114.5 199.1 113.6 200.8 113.5C202.7 113.4 203.4 114.6 203.6 116.1C203.7 117.7 202.4 118.3 201.4 118.6Z" fill="#1E1D1D"/>
<path d="M99.4998 98.9C102.4 98.8 102.1 101 102.3 102.3C102.6 103.7 101 104.1 99.7998 104.3C98.6998 104.5 96.8998 102.4 96.9998 101.2C97.1998 99.5 98.3998 99 99.4998 98.9Z" fill="#1E1D1D"/>
<path d="M137.2 101.1C135.7 100.7 134.1 100.4 134.2 98.5C134.3 97 135.2 96 136.9 96C138.7 96 139.4 97.2 139.6 98.8C139.8 100.5 138.3 100.7 137.2 101.1Z" fill="#1E1D1D"/>
<path d="M165.4 96.3C167.1 96.3 168.7 97.9 168.7 99.4C168.7 100.6 167.9 101.2 166.8 101.3C164.8 101.5 163.3 100.3 163.2 98.7C163 97.1 163.7 96.2 165.4 96.3Z" fill="#1E1D1D"/>
<path d="M114 93.5C115.7 93.5 117.3 95.1 117.3 96.6C117.3 97.8 116.5 98.4 115.4 98.5C113.4 98.7 111.9 97.5 111.8 95.9C111.7 94.3 112.3 93.5 114 93.5Z" fill="#1E1D1D"/>
<path d="M89.0999 117.2C91.2999 117 91.7999 118.8 91.8999 120.1C91.9999 121.3 90.7999 122.2 89.5999 122.6C88.5999 122.9 86.3999 120.2 86.5999 119C86.7999 117.5 87.6999 117 89.0999 117.2Z" fill="#1E1D1D"/>
<path d="M191.8 95.5C193.2 95.6 194.4 96.3 194.5 98C194.5 99.5 193.4 100.5 192 100.9C190.9 101.2 188.9 99.2 189.2 98C189.4 96.8 189.9 95.5 191.8 95.5Z" fill="#1E1D1D"/>
<path d="M71.2999 104.8C73.4999 104.7 74.3999 105.9 74.2999 107.5C74.2999 108.5 74.0999 110.1 72.2999 110C70.6999 110 68.4999 108.6 68.7999 107.4C69.2999 105.9 70.1999 104.9 71.2999 104.8Z" fill="#1E1D1D"/>
<path d="M139.7 37.9L142.4 0L156.4 1C157.1 1.1 161 1.4 164.4 4.2C168.7 7.7 170.7 13.5 170.1 21.4C169.6 28.5 167 33.5 162.4 36.3C158.1 38.9 153.4 38.8 152.1 38.8L139.7 37.9ZM147.9 6.6L146.1 31.8L152 32.2C157.1 32.6 163.4 29.7 164.1 20.5C164.6 13 160.7 7.5 154.6 7L147.9 6.6Z" fill="#1E1D1D"/>
<path d="M191.546 7.07501L177.592 42.4226L183.173 44.6258L197.127 9.27821L191.546 7.07501Z" fill="#1E1D1D"/>
<path d="M213.6 61.4L214.8 43.9L208.1 39.3L199.6 51.8L194.6 48.3L216 17L228.6 25.6C235.6 30.4 237.9 37.7 234.1 43.2C231.5 47 227.2 48.4 222 47.2L219.9 46.7L218.6 64.8L213.6 61.4ZM211.4 34.6L218.7 39.6C220.8 41 225.6 44.3 228.8 39.7C232 35 227 31.5 225.1 30.2L217.8 25.2L211.4 34.6Z" fill="#1E1D1D"/>
<path d="M245.8 122.1C244.4 112.3 251.8 102.6 262.1 100.9H262.4C265.6 100.4 270.5 100.7 275 102.9C280.1 105.4 283.1 109.7 283.9 115.6C285.1 124.1 281.4 127.6 280.6 128C279.7 127.9 277.6 127.1 276 126.5C276.2 126.2 276.5 125.8 276.7 125.3C278.1 122.9 278.7 120.4 278.3 118.1C278.2 117.6 278.2 117.1 278 116.5C276.1 109.3 270.6 105.7 263.3 106.8C255.8 107.9 250.7 114.4 251.7 121.6C252.3 125.7 254.1 128 256.3 129.6C254.6 131.1 253.3 131.9 252.5 132C252.4 132 252.4 132 252.3 132C249 130.2 246.4 126.3 245.8 122.1Z" fill="#1E1D1D"/>
<path d="M247.9 148L280 147.5L279.8 135.6L285.7 135.5L286.2 164.8L280.2 164.9L280.1 153.3L248 153.8L247.9 148Z" fill="#1E1D1D"/>
<path d="M249.7 191.2C249.8 182.9 259.4 174.7 269.2 174.6H269.5C274.4 174.6 279.3 176.6 283 180C286.6 183.3 288.6 187.5 288.6 191.6C288.5 199.1 280 207.7 269 207.7C264 207.7 259.2 205.7 255.4 202.3C251.7 198.9 249.6 194.8 249.7 191.2ZM282.7 191.2C282.7 185.6 276.4 180.6 269.1 180.5C261.3 180.4 255.4 186 255.4 191C255.4 197.1 262.5 201.6 269 201.7C276.3 201.7 282.6 196.9 282.7 191.2Z" fill="#1E1D1D"/>
<path d="M248.3 245.3L263.4 236.3L263.3 228.2L248.2 228.3V222.2L286.2 221.9L286.3 237.2C286.4 245.7 281.7 251.7 274.9 251.8C270.3 251.8 266.7 249.1 264.8 244.2L264 242.2L248.4 251.5L248.3 245.3ZM269.1 228.2L269.2 237C269.2 239.5 269.3 245.4 274.9 245.4C280.6 245.4 280.6 239.3 280.6 237L280.5 228.2H269.1Z" fill="#1E1D1D"/>
<path d="M248.3 271.9H268.9L286.2 260.6V266.9L274.4 275L286.2 282.5V288.3L269 277.4H248.3V271.9Z" fill="#1E1D1D"/>
<path d="M225.8 71.6L258.9 52.4L273.6 77.8L268.1 81L256.6 61.1L248.6 65.7L257 80.3L251.3 83.6L242.9 69.1L234.6 73.8L246.2 93.9L240.6 97.2L225.8 71.6Z" fill="#1E1D1D"/>
<path d="M39.4 269.5C39.4 279.5 30.4 288.1 19.8 288.3H19.5C12 288.2 0 283.4 0 270.5C0 261.8 4.3 258.9 5.1 258.7C5.8 258.9 7.3 259.6 9.2 260.7C7.8 262.2 5.8 265.1 5.8 268.7C5.8 269.2 5.8 269.7 5.9 270.4C6.8 278.2 11.7 282.7 19.5 282.7C27.4 282.7 33.6 276.7 33.6 269.1C33.6 264.5 31.8 262 30.4 260.4C32.8 258.9 33.8 258.7 34.2 258.7C34.3 258.7 34.3 258.7 34.4 258.7C37.5 261 39.4 265.1 39.4 269.5Z" fill="#1E1D1D"/>
<path d="M39.2 219.5L23.7 228.6V237.4H39.2V243.1H0.5V227.7C0.5 219.1 5.3 213.2 12.2 213.2C16.9 213.2 20.5 216 22.5 221L23.3 223.2L39.3 213.9V219.5H39.2ZM18 236.2V228.1C18 223.8 15.9 219.4 12 219.4C9.4 219.4 6.3 221.7 6.3 228.1V236.2H18Z" fill="#1E1D1D"/>
<path d="M39.2 196H0.5V166.1H6.3V190H16.5V172.5H22.6V190H33.2V165.8H39.2V196Z" fill="#1E1D1D"/>
<path d="M44.4001 111.6L13 102L9.40005 113.6L3.80005 111.9L12.4 83.7L18.1 85.4L14.6 96.8L46 106.4L44.4001 111.6Z" fill="#1E1D1D"/>
<path d="M22.5371 66.2849L19.8206 71.1821L53.6637 89.9555L56.3803 85.0583L22.5371 66.2849Z" fill="#1E1D1D"/>
<path d="M69.0001 68.1999L33.1001 49.2999L37.6001 44.7999L64.7001 58.7999L50.6001 31.9L54.7001 27.7L73.4001 63.7999L69.0001 68.1999Z" fill="#1E1D1D"/>
<path d="M86.2 52.8L70.8 17.3L98.3 5.40002L100.6 10.7L78.6 20.3L82.7 29.7L98.8 22.7L101.2 28.3L85.1 35.3L89.3 44.9L111.5 35.3L113.9 40.9L86.2 52.8Z" fill="#1E1D1D"/>
<path d="M40.4 132.1L33.7 133.8L32.8 148.5L39.2 151.1L39 157L1 141.8L1.4 135.5L40.8 125.7L40.4 132.1ZM26.8 146.1L27.4 135.5L10.9 139.8L26.8 146.1Z" fill="#1E1D1D"/>
</g>
<defs>
<clipPath id="clip0">
<rect width="288.5" height="288.3" fill="white"/>
</clipPath>
</defs>
</svg>
