<svg width="3402" height="648" viewBox="0 0 3402 648" fill="none" xmlns="http://www.w3.org/2000/svg">
<ellipse cx="1703.5" cy="218.5" rx="271.5" ry="218.5" fill="white"/>
<g clip-path="url(#clip0)">
<path d="M120.916 450.34C103.023 450.34 70.7373 442.561 70.7373 427.39C70.7373 426.223 73.0712 421.166 77.35 412.998C90.9646 421.944 105.746 427.001 119.75 427.001C135.698 427.001 152.424 419.61 152.424 407.552C152.424 395.493 135.698 390.047 117.805 384.602L117.027 384.213L114.693 383.435C102.634 379.545 91.7425 375.655 85.1298 370.598C75.0161 362.818 69.5703 352.316 69.5703 341.035C69.5703 316.918 97.5773 297.469 131.808 297.469C141.144 297.469 155.536 299.025 166.817 303.304C174.597 306.026 183.543 311.083 183.543 318.863C183.543 324.309 180.042 329.755 177.708 333.644C167.595 325.476 153.591 321.197 134.142 321.197C122.083 321.197 101.856 325.087 101.856 339.479C101.856 350.371 117.416 357.373 142.7 367.875C147.368 369.82 157.87 374.099 162.149 376.433C176.153 384.602 184.71 396.66 184.71 408.719C185.099 430.502 155.147 450.34 120.916 450.34Z" fill="black"/>
<path d="M266.399 448.783V299.023H383.873V323.919H292.461V359.705H359.367V386.156H292.461V423.11H385.04V448.783H266.399Z" fill="black"/>
<path d="M683.001 448.783V324.308H636.322V299.023H752.629V324.308H707.118V448.783H683.001Z" fill="black"/>
<path d="M862.712 448.783V324.308H815.645V299.023H932.341V324.308H886.44V448.783H862.712Z" fill="black"/>
<path d="M1013.25 448.783V299.023H1037.37V422.332H1101.94V448.783H1013.25Z" fill="black"/>
<path d="M1170.4 448.783V299.023H1287.88V323.919H1196.47V359.705H1263.37V386.156H1196.47V423.11H1289.04V448.783H1170.4Z" fill="black"/>
<path d="M524.251 297.254L572.585 452.39H544.845L509.12 340.966L472.134 452.39H445.655L497.772 297.254H524.251Z" fill="black"/>
<path d="M547.637 402.113H474.896V426.619H547.637V402.113Z" fill="black"/>
<path d="M2191.58 449.653C2152.51 449.653 2118.8 415.114 2117.98 374.819V373.585C2117.98 344.392 2136.89 298.34 2187.46 298.34C2222.83 298.34 2233.93 316.02 2234.34 318.899V319.31C2233.52 322.188 2230.64 328.356 2225.7 336.579C2220.77 332.056 2209.26 323.011 2194.45 323.011C2192.4 323.011 2190.34 323.01 2188.29 323.422C2159.09 326.711 2142.24 344.803 2142.24 373.585C2142.24 402.779 2164.44 425.394 2193.22 425.394C2210.49 425.394 2220.36 418.815 2226.94 412.236C2233.11 421.693 2234.75 426.627 2234.75 428.683C2234.75 429.094 2234.75 429.917 2234.75 429.917C2225.29 442.252 2208.85 449.653 2191.58 449.653Z" fill="black"/>
<path d="M2391 448.835L2356.05 390.447H2323.98V448.835H2299.31V299.988H2360.16C2393.88 299.988 2417.31 318.491 2417.31 345.218C2417.31 363.721 2406.21 377.701 2386.48 385.102L2379.49 387.569L2415.67 448.423H2391V448.835ZM2328.5 366.188H2358.52C2374.55 366.188 2390.59 358.787 2390.59 344.807C2390.59 335.35 2382.36 324.659 2358.52 324.659H2328.5V366.188Z" fill="black"/>
<path d="M2485.98 448.835V299.988H2603.58V324.659H2511.48V360.431H2578.91V386.336H2511.48V423.342H2604.82V448.835H2485.98Z" fill="black"/>
<path d="M2872.08 448.835V325.07H2825.61V299.988H2941.57V325.07H2895.92V448.835H2872.08Z" fill="black"/>
<path d="M3029.55 299.988H3005.29V448.835H3029.55V299.988Z" fill="black"/>
<path d="M3143.45 448.835L3096.17 299.988H3123.72L3158.26 406.895L3192.38 299.988H3217.47L3169.36 448.835H3143.45Z" fill="black"/>
<path d="M2733.5 299.988L2780.38 448.835H2753.24L2718.29 342.34L2682.11 448.835H2656.2L2707.19 299.988H2733.5Z" fill="black"/>
<path d="M3282.84 448.835V299.988H3400.43V324.659H3308.33V360.431H3375.76V386.336H3308.33V423.342H3401.67V448.835H3282.84Z" fill="black"/>
<path d="M2758.18 397.844H2681.29V423.748H2758.18V397.844Z" fill="black"/>
<path d="M1897.29 172.84C1902.61 172.84 1908.74 179.789 1908.74 185.103C1908.74 189.599 1904.24 194.914 1900.56 194.914C1896.07 194.914 1888.71 186.329 1888.71 181.015C1888.71 175.701 1891.98 172.84 1897.29 172.84Z" fill="black"/>
<path d="M1563.74 149.129C1563.74 154.443 1558.01 160.575 1553.52 160.166C1548.2 160.166 1544.12 155.67 1544.52 149.947C1544.93 144.224 1550.25 138.91 1555.56 138.91C1560.06 139.319 1563.74 143.815 1563.74 149.129Z" fill="black"/>
<path d="M1713.76 75.1445C1718.66 75.1445 1722.34 77.1884 1722.34 82.5024C1722.75 88.2252 1717.03 95.1744 1712.12 94.7656C1707.22 94.7656 1702.31 90.2691 1702.72 85.7726C1702.72 79.641 1707.63 75.1445 1713.76 75.1445Z" fill="black"/>
<path d="M1811.45 178.153C1809.41 178.153 1801.23 171.203 1801.23 169.16C1800.82 165.889 1807.36 159.758 1810.63 159.758C1816.35 159.758 1824.53 165.889 1824.94 169.977C1825.35 173.247 1817.17 178.153 1811.45 178.153Z" fill="black"/>
<path d="M1806.55 89.439C1807.36 80.0372 1810.22 74.7232 1819.63 76.767C1824.53 77.5846 1825.35 81.2635 1825.76 84.9425C1826.17 88.2126 1825.76 92.3003 1821.26 93.1179C1817.17 93.9354 1813.49 95.1618 1809.41 95.1618C1806.14 95.1618 1806.55 91.8916 1806.55 89.439Z" fill="black"/>
<path d="M1605.02 127.05C1599.29 127.458 1597.25 123.371 1596.43 118.465C1595.62 113.56 1601.34 108.246 1606.24 108.246C1611.56 108.246 1616.87 113.56 1616.87 118.465C1616.87 123.371 1611.97 127.05 1605.02 127.05Z" fill="black"/>
<path d="M1884.62 231.694C1884.62 226.789 1889.12 222.701 1894.43 223.11C1898.93 223.11 1903.02 228.833 1903.02 234.556C1903.02 240.279 1899.34 241.914 1894.43 242.323C1888.3 242.323 1884.62 238.235 1884.62 231.694Z" fill="black"/>
<path d="M1683.91 128.684C1688.41 129.91 1692.91 130.727 1692.5 136.859C1692.09 143.808 1688 149.122 1683.1 148.713C1677.37 148.305 1675.33 144.626 1674.92 136.041C1674.92 129.092 1679.83 129.91 1683.91 128.684Z" fill="black"/>
<path d="M1739.92 85.7595C1740.33 80.0367 1739.92 74.7227 1746.46 74.7227C1752.18 74.7227 1756.27 80.0367 1755.45 86.1683C1755.04 91.4823 1750.55 94.7525 1746.87 93.5262C1741.15 91.8911 1739.92 89.8472 1739.92 85.7595Z" fill="black"/>
<path d="M1831.89 143.408C1832.3 147.904 1831.89 152.401 1824.94 152.401C1820.44 152.401 1814.72 145.452 1814.72 140.547C1815.13 136.459 1819.63 132.371 1824.12 132.371C1830.26 132.78 1831.89 134.824 1831.89 143.408Z" fill="black"/>
<path d="M1806.55 57.969C1806.96 62.4655 1806.55 66.962 1799.6 66.962C1795.1 66.962 1789.38 60.0129 1789.38 55.1076C1789.79 51.0199 1806.55 54.2901 1806.55 57.969Z" fill="black"/>
<path d="M1574.78 167.107C1575.59 163.837 1574.78 158.932 1581.73 159.34C1586.63 159.749 1593.58 164.654 1593.17 168.333C1592.76 174.056 1588.67 178.144 1582.95 177.735C1576.82 177.735 1574.78 175.282 1574.78 167.107Z" fill="black"/>
<path d="M1490.16 258.265C1482.8 258.673 1479.53 256.63 1479.12 250.498C1478.71 245.184 1482.39 240.688 1487.3 240.688C1492.2 240.688 1499.15 246.819 1498.74 251.724C1497.92 258.265 1492.61 258.265 1490.16 258.265Z" fill="black"/>
<path d="M1862.14 138.504C1867.46 138.504 1870.73 141.365 1870.73 147.497C1870.73 152.811 1866.64 156.899 1861.32 156.899C1856.42 156.899 1852.33 153.22 1852.33 148.723C1852.33 143.409 1857.24 138.504 1862.14 138.504Z" fill="black"/>
<path d="M1898.52 153.207C1898.93 160.156 1896.47 161.382 1889.12 162.2C1885.03 162.608 1881.76 160.565 1881.76 156.068C1881.35 150.754 1887.07 142.579 1891.16 142.987C1897.7 143.396 1898.11 148.71 1898.52 153.207Z" fill="black"/>
<path d="M1514.27 203.076C1513.46 205.938 1514.68 211.252 1508.55 211.66C1502.01 212.069 1497.1 208.39 1497.1 203.076C1497.1 198.171 1501.6 193.674 1506.1 193.266C1511 193.266 1514.27 196.945 1514.27 203.076Z" fill="black"/>
<path d="M1551.06 99.6617C1551.47 104.567 1550.25 107.02 1544.12 107.428C1541.66 107.428 1536.76 102.932 1537.98 100.479C1538.8 99.2529 1541.66 94.3477 1544.12 94.3477C1547.39 94.3477 1550.66 94.7564 1551.06 99.6617Z" fill="black"/>
<path d="M1591.53 135.234C1591.53 141.774 1586.22 147.906 1581.72 147.497C1578.04 147.088 1573.14 146.679 1573.14 140.956C1573.14 137.278 1580.5 129.102 1584.17 129.511C1587.85 129.92 1591.12 131.964 1591.53 135.234Z" fill="black"/>
<path d="M1742.78 157.304C1737.05 157.304 1730.92 151.99 1730.92 147.902C1730.92 142.997 1734.6 139.727 1739.92 139.727C1744.82 139.727 1749.73 144.632 1749.32 149.537C1748.5 153.216 1748.5 158.121 1742.78 157.304Z" fill="black"/>
<path d="M1579.27 89.0425C1583.35 89.0425 1589.08 95.1741 1588.67 100.079C1588.26 103.35 1587.03 107.028 1582.54 107.437C1576.81 107.846 1571.09 101.714 1571.09 96.4004C1571.5 91.4952 1573.95 88.6338 1579.27 89.0425Z" fill="black"/>
<path d="M1583.36 63.6953C1587.45 63.6953 1593.17 69.8269 1592.76 74.7321C1592.35 78.0023 1591.13 81.6813 1586.63 82.09C1580.91 82.4988 1575.19 76.3672 1575.19 71.0532C1575.59 66.5567 1577.64 63.6953 1583.36 63.6953Z" fill="black"/>
<path d="M1605.02 216.978C1605.02 212.481 1610.34 207.576 1614.42 207.985C1619.74 208.802 1621.78 213.299 1621.78 217.387C1621.78 221.066 1621.37 226.38 1615.24 226.38C1608.7 226.38 1605.02 222.701 1605.02 216.978Z" fill="black"/>
<path d="M1846.61 166.707C1851.1 166.707 1856.83 172.839 1856.42 177.335C1856.01 182.24 1852.33 183.467 1848.24 183.875C1844.15 184.284 1838.02 178.561 1838.02 174.474C1838.02 169.977 1841.7 166.707 1846.61 166.707Z" fill="black"/>
<path d="M1701.91 156.48C1706.4 156.48 1712.12 162.612 1711.72 167.109C1711.31 172.014 1707.63 173.24 1703.54 173.649C1699.45 174.058 1693.32 168.335 1693.32 164.247C1693.73 159.751 1697 156.48 1701.91 156.48Z" fill="black"/>
<path d="M1536.76 217.795C1532.67 217.795 1526.95 212.481 1526.95 208.802C1526.95 205.532 1533.08 198.174 1536.35 198.583C1541.26 199.4 1544.12 203.488 1544.12 207.576C1543.3 211.663 1543.71 217.795 1536.76 217.795Z" fill="black"/>
<path d="M1811.45 212.084C1807.36 212.084 1801.64 206.77 1801.64 203.091C1801.64 199.821 1807.77 192.463 1811.04 192.872C1815.95 193.689 1818.81 197.777 1818.81 201.865C1817.99 206.361 1818.4 212.084 1811.45 212.084Z" fill="black"/>
<path d="M1524.9 170.385C1524.49 173.246 1524.49 177.743 1518.77 177.743C1512.64 177.743 1507.73 173.655 1507.73 168.75C1507.73 163.844 1511 160.574 1515.91 160.574C1522.04 160.574 1524.9 163.436 1524.9 170.385Z" fill="black"/>
<path d="M1845.79 114.38C1851.1 114.38 1857.23 120.103 1856.42 124.191C1855.6 127.87 1853.96 131.957 1849.47 132.366C1844.97 132.775 1838.02 125.417 1838.84 120.92C1839.66 116.424 1842.11 113.971 1845.79 114.38Z" fill="black"/>
<path d="M1710.08 129.5C1715.4 129.5 1721.53 135.223 1720.71 139.31C1719.89 142.989 1718.26 147.077 1713.76 147.486C1709.26 147.894 1702.31 140.537 1703.13 136.04C1703.54 131.952 1706.4 129.091 1710.08 129.5Z" fill="black"/>
<path d="M1614.02 174.875C1620.15 174.466 1620.96 178.962 1620.96 183.05C1620.96 187.955 1618.1 191.634 1613.2 192.861C1610.75 193.27 1604.21 185.912 1604.21 183.05C1604.21 178.145 1608.29 174.466 1614.02 174.875Z" fill="black"/>
<path d="M1538.4 134.818C1538.81 139.723 1535.94 141.767 1531.04 142.176C1525.72 142.176 1522.05 138.088 1522.05 132.365C1522.05 127.869 1524.09 124.598 1528.59 123.781C1532.67 122.963 1538.4 129.912 1538.4 134.818Z" fill="black"/>
<path d="M1880.12 194.098C1886.25 194.098 1889.11 197.368 1889.11 203.499C1889.11 208.405 1886.66 210.857 1882.17 211.266C1877.67 211.266 1871.95 204.317 1871.95 199.412C1871.95 195.324 1874.4 194.098 1880.12 194.098Z" fill="black"/>
<path d="M1717.43 48.9721C1723.16 48.1546 1724.38 52.2423 1725.2 56.7388C1726.02 61.6441 1721.93 64.9142 1716.21 64.5055C1711.71 64.5055 1707.62 62.8704 1707.21 57.9651C1706.81 53.8774 1712.12 48.9721 1717.43 48.9721Z" fill="black"/>
<path d="M1717.43 104.156C1723.16 103.338 1724.38 107.426 1725.2 111.922C1726.02 116.828 1721.93 120.098 1716.21 119.689C1711.71 119.689 1707.62 118.054 1707.21 113.149C1706.81 109.061 1712.12 104.156 1717.43 104.156Z" fill="black"/>
<path d="M1768.94 95.1636C1775.89 95.1636 1781.2 99.2513 1780.8 103.748C1780.39 107.836 1778.75 111.923 1773.44 112.741C1768.53 113.558 1764.44 108.244 1764.04 102.522C1763.63 97.6163 1764.85 94.7549 1768.94 95.1636Z" fill="black"/>
<path d="M1550.66 175.289C1557.61 175.289 1562.92 179.376 1562.51 183.873C1562.11 187.961 1560.47 192.048 1555.16 192.866C1550.25 193.683 1546.16 188.369 1545.75 182.647C1545.35 177.741 1546.57 174.88 1550.66 175.289Z" fill="black"/>
<path d="M1743.18 126.651C1738.28 125.833 1736.64 122.563 1736.23 117.658C1735.83 111.935 1739.5 109.891 1744 108.665C1746.86 108.256 1753.4 115.614 1752.99 118.884C1752.18 124.198 1748.5 126.242 1743.18 126.651Z" fill="black"/>
<path d="M1826.58 116.829C1821.68 117.238 1818.41 114.785 1818 109.88C1817.59 106.61 1824.95 100.887 1828.62 100.887C1833.94 100.887 1835.57 104.566 1835.98 108.245C1836.8 113.15 1832.3 116.42 1826.58 116.829Z" fill="black"/>
<path d="M1792.64 82.0902C1793.05 86.5867 1788.96 88.2218 1784.88 88.6306C1780.79 89.0393 1776.29 83.7253 1776.7 79.2288C1777.11 75.1411 1778.75 71.0534 1784.06 71.0534C1788.15 70.6446 1792.64 75.9586 1792.64 82.0902Z" fill="black"/>
<path d="M1637.32 70.6453C1643.86 69.8277 1644.27 75.5506 1644.68 79.2295C1645.09 82.9084 1642.22 86.1786 1636.91 87.4049C1633.64 88.2225 1628.73 81.6821 1629.14 77.5944C1629.96 72.2804 1633.23 70.6453 1637.32 70.6453Z" fill="black"/>
<path d="M1871.95 131.146C1866.63 131.555 1864.59 128.693 1864.59 123.788C1864.59 118.474 1866.63 115.204 1871.95 115.612C1876.44 116.021 1880.53 117.656 1880.53 123.379C1880.53 127.876 1877.26 131.146 1871.95 131.146Z" fill="black"/>
<path d="M1666.34 73.0944C1662.66 72.2769 1658.16 71.4594 1657.75 65.7366C1657.75 60.8313 1661.43 57.1523 1667.15 57.1523C1672.06 57.1523 1674.1 60.8313 1674.92 64.5102C1675.74 68.1892 1670.83 73.0944 1666.34 73.0944Z" fill="black"/>
<path d="M1654.89 102.115C1655.3 98.0277 1655.3 93.94 1661.02 93.5312C1665.93 93.5312 1670.01 97.2102 1669.61 102.115C1669.2 107.429 1665.11 111.517 1661.02 111.517C1656.12 111.926 1655.3 106.612 1654.89 102.115Z" fill="black"/>
<path d="M1679.01 37.1226C1682.28 34.67 1685.14 31.8086 1689.23 35.8963C1692.91 39.5752 1692.91 44.8893 1688.82 48.1595C1684.73 51.4296 1679.01 51.0209 1676.15 48.5682C1672.47 44.8893 1675.74 40.3928 1679.01 37.1226Z" fill="black"/>
<path d="M1695.77 75.1458C1695.77 81.6862 1693.73 84.9563 1688.01 84.9563C1683.51 84.9563 1679.83 82.9125 1679.83 77.5984C1679.42 72.2844 1683.51 68.6055 1688.82 68.6055C1693.73 69.0142 1696.18 71.4669 1695.77 75.1458Z" fill="black"/>
<path d="M1613.61 94.357C1608.29 94.357 1604.21 89.4517 1604.21 84.1377C1604.21 78.4148 1609.11 78.4148 1612.38 77.5973C1615.24 76.7798 1620.15 83.7289 1619.74 88.6341C1620.15 92.7219 1616.47 93.5394 1613.61 94.357Z" fill="black"/>
<path d="M1622.6 69.0093C1617.28 69.0093 1613.19 64.104 1613.19 58.79C1613.19 53.0672 1618.1 53.0672 1621.37 52.2496C1624.23 51.4321 1629.14 58.3812 1628.73 63.2865C1628.73 67.3742 1625.46 68.1918 1622.6 69.0093Z" fill="black"/>
<path d="M1918.14 219.427C1912.83 219.427 1908.74 214.522 1908.74 209.208C1908.74 203.485 1913.64 203.485 1916.91 202.668C1919.78 201.85 1924.68 208.799 1924.27 213.704C1924.27 218.201 1921 219.019 1918.14 219.427Z" fill="black"/>
<path d="M1856.83 101.294C1851.52 101.294 1847.43 96.3892 1847.43 91.0752C1847.43 85.3523 1852.33 85.3523 1855.6 84.5348C1858.46 83.7173 1863.37 90.6664 1862.96 95.5717C1862.96 99.6594 1859.69 100.477 1856.83 101.294Z" fill="black"/>
<path d="M1507.33 235.79C1503.65 234.973 1498.33 235.79 1498.33 229.659C1498.33 224.753 1501.61 222.301 1506.51 222.301C1511.82 222.301 1515.91 223.936 1516.32 229.25C1517.14 235.381 1511.82 235.381 1507.33 235.79Z" fill="black"/>
<path d="M1679.83 110.289C1679.83 105.793 1681.87 102.523 1686.78 102.114C1690.46 101.705 1695.36 106.61 1695.36 110.289C1695.36 113.559 1689.64 118.056 1685.14 118.056C1681.06 117.647 1680.24 114.377 1679.83 110.289Z" fill="black"/>
<path d="M1589.49 206.351C1585 205.125 1580.5 204.307 1580.91 198.584C1581.32 194.497 1583.77 191.227 1588.67 191.227C1593.99 191.227 1596.03 194.906 1596.44 199.402C1597.26 204.716 1593.17 205.125 1589.49 206.351Z" fill="black"/>
<path d="M1756.67 67.7769C1752.18 66.5506 1747.68 65.733 1748.09 60.0102C1748.5 55.9225 1750.95 52.6523 1755.86 52.6523C1761.17 52.6523 1763.21 56.3313 1763.62 60.8278C1764.03 66.1418 1759.94 66.9594 1756.67 67.7769Z" fill="black"/>
<path d="M1558.42 112.345C1564.96 111.937 1566.19 116.842 1566.6 120.929C1567.01 124.2 1563.33 127.061 1560.06 128.287C1557.2 129.105 1551.07 121.338 1551.47 118.068C1551.88 113.163 1554.34 111.528 1558.42 112.345Z" fill="black"/>
<path d="M1656.94 465.517C1666.75 462.656 1686.78 461.021 1694.13 464.7C1699.04 467.152 1703.54 467.97 1707.62 466.335C1728.47 457.342 1748.09 460.612 1767.3 470.422C1769.76 471.649 1776.71 474.101 1772.62 477.78C1768.53 481.459 1763.62 480.642 1759.13 479.007C1748.09 475.328 1733.78 470.831 1723.57 474.919C1711.3 479.824 1702.31 481.459 1690.05 477.78C1680.24 474.919 1671.65 475.328 1661.43 478.189C1654.89 479.824 1653.26 481.051 1647.53 482.686C1641.4 484.321 1638.54 484.321 1634.45 482.277C1629.96 480.642 1633.23 477.372 1635.68 475.736C1640.18 472.058 1647.12 468.787 1656.94 465.517Z" fill="black"/>
<path d="M1741.14 496.168C1746.05 497.803 1742.78 502.299 1736.65 503.934C1731.74 505.161 1725.2 505.569 1723.16 506.796C1712.94 511.701 1702.72 513.745 1692.09 512.519C1683.92 511.701 1673.7 505.569 1667.97 499.438C1665.11 496.576 1664.7 490.854 1671.65 492.08C1678.6 492.897 1678.19 493.306 1681.06 494.533C1690.87 499.438 1697.82 502.708 1710.08 498.212C1717.84 494.941 1722.34 494.533 1730.93 494.941C1735.01 494.941 1737.06 494.941 1741.14 496.168Z" fill="black"/>
<path d="M1571.1 356.778C1570.69 366.588 1571.51 376.808 1567.01 387.027C1563.74 394.794 1562.92 404.604 1561.7 413.597C1559.24 430.765 1558.83 447.934 1556.79 465.102C1555.16 481.453 1553.52 497.804 1549.84 513.746C1546.98 526.418 1537.17 539.499 1527.77 543.586C1524.91 544.813 1522.86 545.63 1521.23 546.857C1517.96 548.492 1510.6 537.864 1514.28 536.229C1519.18 534.185 1523.27 531.732 1526.13 529.279C1537.99 520.286 1540.03 501.074 1541.67 483.497C1543.3 466.329 1544.53 452.839 1544.94 438.532C1545.75 419.729 1547.8 401.743 1553.93 383.757C1559.24 369.041 1559.24 352.69 1559.24 336.748C1559.24 321.215 1557.61 306.09 1554.75 290.966C1552.29 277.476 1544.12 268.074 1532.67 261.534C1528.18 259.081 1526.13 257.855 1522.45 254.585C1518.77 251.315 1517.14 246.001 1517.14 240.687C1517.14 235.373 1521.64 235.373 1524.5 237.825C1533.08 245.592 1547.39 252.95 1555.16 261.534C1564.15 272.162 1569.05 284.016 1570.28 298.323C1571.51 310.178 1571.91 340.836 1571.1 356.778Z" fill="black"/>
<path d="M1815.95 102.115C1812.27 116.014 1795.1 133.591 1785.7 142.992C1783.25 145.445 1743.19 173.242 1732.97 190.41C1728.06 198.585 1722.34 206.352 1718.25 214.936C1713.76 224.338 1711.3 224.747 1705.17 232.922C1702.31 237.01 1694.13 244.368 1691.27 237.828C1689.23 232.922 1688.82 231.696 1692.5 227.608C1695.77 222.703 1697 219.433 1692.09 210.849C1684.32 196.95 1673.29 186.322 1663.89 173.65C1660.21 168.745 1644.26 146.671 1640.18 139.722C1634.45 129.912 1629.55 107.838 1629.14 101.707C1629.55 97.6188 1632.41 97.2101 1636.09 100.071C1639.77 102.933 1641.81 106.203 1642.22 109.064C1645.49 124.189 1663.07 149.124 1667.97 156.073C1674.92 164.657 1680.64 174.468 1688 182.235C1693.32 187.957 1699.45 193.271 1702.72 200.629C1703.94 203.082 1706.81 202.264 1708.44 199.812C1714.16 191.228 1720.7 183.052 1725.61 174.059C1728.47 168.336 1732.56 164.657 1737.06 160.57C1751.36 147.898 1767.71 138.496 1781.2 124.598C1788.15 117.649 1794.28 111.926 1798.37 106.612C1802.87 101.298 1802.87 101.298 1806.96 100.071C1812.27 99.6627 1815.95 99.6627 1815.95 102.115Z" fill="black"/>
<path d="M1679.83 334.707C1680.24 356.372 1667.97 377.219 1647.94 385.395C1632 391.935 1623.42 402.563 1623.01 419.323C1623.01 423.411 1623.01 425.046 1622.19 428.725C1621.37 433.221 1620.96 433.63 1615.24 436.491C1609.52 439.353 1609.93 430.769 1609.52 425.455C1609.11 420.141 1609.52 407.877 1613.61 398.476C1616.88 391.118 1622.6 384.577 1629.55 380.081C1637.32 375.176 1644.67 369.862 1652.85 365.774C1658.98 362.504 1662.25 355.963 1664.29 349.423C1665.52 345.335 1663.89 342.065 1658.57 341.656C1655.71 341.248 1652.85 340.839 1650.4 340.43C1645.49 340.021 1642.63 340.839 1643.04 346.97C1643.45 351.058 1640.99 353.102 1637.32 353.511C1629.55 354.328 1626.28 351.467 1618.51 362.504C1612.38 368.635 1607.07 368.635 1602.98 366.183C1598.89 363.73 1600.53 362.095 1604.61 358.007C1609.11 353.511 1612.79 349.423 1616.06 344.109C1624.64 330.211 1638.13 323.67 1655.3 326.532C1658.16 326.941 1661.84 328.984 1662.66 325.305C1663.48 322.035 1663.89 320.809 1658.16 316.721C1652.44 312.634 1645.9 310.998 1635.68 312.225C1625.46 313.451 1623.42 316.721 1616.06 321.218C1612.79 323.262 1611.15 323.262 1605.02 322.853C1600.53 322.444 1597.66 317.539 1600.12 315.086C1613.61 302.823 1631.59 296.691 1648.35 298.327C1665.93 299.962 1680.65 310.181 1679.83 334.707Z" fill="black"/>
<path d="M1646.31 266.033C1641.81 266.033 1638.54 263.989 1634.87 261.536C1623.42 253.361 1612.38 243.959 1600.53 236.601C1585.81 227.2 1568.24 222.703 1554.75 211.258C1545.75 203.491 1528.58 185.096 1520.41 175.286C1517.55 170.789 1518.36 165.475 1524.91 167.11C1530.22 168.337 1535.12 168.745 1540.44 175.286C1546.98 183.87 1553.11 192.863 1566.19 203.082C1572.73 208.396 1581.32 210.44 1588.67 214.119C1602.16 220.659 1614.84 228.426 1627.1 237.01C1629.14 238.236 1630.37 240.689 1633.23 238.645C1636.09 236.601 1631.59 225.973 1630.78 222.703C1627.92 211.258 1620.97 201.447 1615.65 191.228C1609.93 181.008 1606.25 172.424 1602.16 162.205C1600.12 157.3 1600.94 154.438 1603.8 149.942C1606.25 146.263 1610.34 143.401 1611.97 149.124C1614.43 157.708 1627.51 185.505 1635.68 197.359C1643.45 209.214 1648.35 225.156 1649.58 231.287C1650.81 238.236 1654.08 246.003 1656.12 250.908C1659.8 259.493 1655.71 266.033 1646.31 266.033Z" fill="black"/>
<path d="M1687.6 434.042C1680.24 426.684 1673.29 432.816 1663.89 430.363C1658.17 428.728 1654.08 425.458 1652.85 417.691C1650.81 405.837 1655.71 394.391 1658.17 389.895C1667.57 376.405 1672.47 394.391 1670.43 398.479C1667.16 404.202 1665.11 407.881 1665.52 413.195C1665.93 417.691 1672.06 419.326 1675.74 418.1C1681.06 416.465 1685.96 416.874 1690.46 420.144C1698.63 426.275 1706.81 427.502 1715.39 421.37C1719.48 418.509 1721.53 417.691 1726.02 416.874C1732.97 416.056 1736.65 412.377 1732.56 406.246C1730.52 402.975 1728.07 400.114 1726.02 397.253C1721.12 390.712 1721.12 382.946 1725.2 377.223C1727.66 373.544 1732.97 371.5 1737.06 371.5C1750.14 372.318 1761.18 380.493 1766.08 384.989C1770.99 390.304 1775.48 398.07 1778.34 403.384C1782.43 410.742 1784.07 417.282 1787.75 424.64C1788.56 426.275 1789.38 428.319 1789.38 430.363C1789.79 433.633 1778.75 436.903 1772.62 425.049C1767.31 414.012 1761.59 399.296 1756.27 393.165C1752.18 388.26 1748.91 386.216 1747.28 385.398C1744.42 384.172 1738.69 382.537 1737.06 385.398C1735.42 387.851 1740.33 396.844 1743.19 400.523C1746.05 404.202 1748.91 410.742 1746.46 418.509C1744.01 425.867 1735.01 425.458 1727.66 428.319C1723.16 429.954 1720.3 433.225 1715.8 436.086C1710.08 440.174 1695.36 441.809 1687.6 434.042Z" fill="black"/>
<path d="M1741.14 575.878C1746.87 581.6 1760.76 582.009 1779.57 584.87C1798.37 587.732 1814.72 595.498 1819.63 598.769C1822.08 600.404 1821.26 603.265 1817.99 604.083C1813.5 605.309 1807.36 605.309 1803.69 604.491C1795.92 602.448 1792.24 600.812 1782.84 599.586C1768.94 597.134 1754.63 596.316 1740.73 593.046C1735.42 591.82 1728.88 588.141 1726.02 582.827C1723.97 578.739 1721.11 576.286 1716.62 575.878C1705.17 574.242 1694.13 571.79 1685.55 583.644C1680.24 591.411 1659.39 595.498 1641.81 598.36C1624.23 601.221 1622.6 602.039 1617.29 602.448C1611.97 602.856 1610.34 602.448 1606.66 602.039C1601.34 600.812 1598.48 595.907 1603.8 594.681C1609.11 593.455 1602.57 595.498 1615.65 591.411C1629.14 587.323 1641.4 584.87 1654.89 584.053C1662.66 583.644 1670.02 580.783 1676.15 573.425C1681.87 566.476 1689.64 561.571 1698.22 561.162C1715.39 557.892 1733.38 563.206 1741.14 575.878Z" fill="black"/>
<path d="M1773.85 245.184C1771.8 246.002 1769.76 246.002 1768.12 245.184C1763.22 243.958 1760.77 239.462 1761.99 234.965C1764.44 226.381 1775.48 208.395 1779.16 199.811C1783.66 189.183 1795.1 172.014 1802.46 166.7C1806.55 163.839 1811.04 172.832 1807.77 177.737C1802.87 185.095 1797.96 192.453 1793.06 199.402C1789.79 206.76 1786.52 213.709 1783.66 221.884C1782.43 223.519 1785.29 224.337 1787.34 223.519C1800.42 218.205 1815.13 216.979 1826.99 208.395C1840.07 198.993 1856.83 183.46 1862.96 176.102C1869.09 168.335 1871.95 165.883 1878.08 165.065C1884.62 164.247 1886.26 167.109 1884.62 169.153C1878.9 176.919 1863.78 196.54 1852.33 206.351C1840.89 216.162 1818.81 230.06 1799.19 235.374C1792.65 237.009 1786.11 238.644 1779.98 241.914C1777.93 243.549 1775.89 244.776 1773.85 245.184Z" fill="black"/>
<path d="M1761.17 298.727C1776.71 298.727 1792.65 305.267 1803.28 318.348C1806.55 322.435 1797.55 324.07 1795.1 323.662C1791.42 323.253 1788.97 321.209 1787.74 319.983C1777.93 309.355 1768.12 310.99 1756.68 312.216C1745.64 313.442 1741.96 316.304 1739.92 322.435C1738.69 325.297 1737.87 327.341 1739.51 329.793C1740.74 331.837 1743.6 331.837 1746.05 331.428C1750.96 330.202 1755.04 328.567 1762.81 328.567C1770.98 328.567 1783.66 336.742 1787.74 343.691C1791.83 350.641 1793.88 351.049 1799.6 355.955C1805.32 360.86 1807.77 361.269 1806.55 363.312C1805.32 365.765 1801.64 366.174 1800.01 366.583C1797.55 366.991 1795.92 365.765 1793.88 364.948C1787.34 362.086 1786.93 360.042 1782.02 356.772C1777.53 353.911 1775.48 355.546 1773.03 355.546C1767.31 355.137 1764.44 353.911 1763.22 350.641C1761.58 347.37 1762.4 345.327 1761.17 344.1C1759.54 341.648 1757.9 341.648 1752.18 344.1C1748.09 345.735 1745.64 345.735 1742.37 345.735C1732.15 345.735 1726.84 340.421 1726.02 330.611C1726.02 329.384 1724.79 317.121 1732.15 308.128C1738.28 301.179 1745.23 298.727 1761.17 298.727Z" fill="black"/>
<path d="M1862.14 582.429C1851.1 580.793 1840.07 579.158 1829.44 575.479C1817.58 571.392 1806.95 565.669 1798.78 557.085C1793.47 551.362 1786.52 546.048 1784.06 537.464C1782.84 533.785 1783.65 532.15 1785.7 528.471C1788.56 523.565 1792.24 524.792 1794.69 529.288C1799.19 537.055 1806.55 544.004 1813.5 549.727C1824.53 559.129 1837.61 563.625 1851.51 565.669C1857.64 566.486 1865.82 568.122 1874.4 570.574C1878.49 572.209 1866.64 583.246 1862.14 582.429Z" fill="black"/>
<path d="M1622.19 550.946C1607.48 564.435 1586.22 570.567 1567.42 570.976C1559.65 570.976 1552.29 573.02 1545.34 575.472C1541.26 577.107 1537.17 578.334 1533.49 579.969C1532.67 579.151 1532.26 578.742 1531.44 577.925C1528.58 575.063 1526.13 572.202 1523.27 568.932C1527.77 567.297 1532.26 565.662 1535.12 564.435C1536.76 564.027 1537.58 563.209 1538.39 563.209C1549.02 557.486 1560.47 555.851 1571.91 555.442C1582.54 555.034 1593.58 552.581 1603.39 546.858C1609.52 543.179 1613.61 540.318 1620.15 535.004C1623.42 532.142 1626.28 536.639 1626.28 541.544C1626.28 546.858 1625.46 548.084 1622.19 550.946Z" fill="black"/>
<path d="M1890.76 546.036C1885.85 543.174 1881.36 539.495 1876.86 534.999C1866.64 524.78 1859.28 512.925 1854.38 499.436C1849.47 486.355 1845.79 473.683 1844.57 459.376C1842.52 437.711 1842.93 427.083 1843.34 405.009C1843.75 382.936 1840.48 367.402 1838.43 349.008C1836.39 330.613 1840.07 308.948 1843.75 298.32C1847.02 290.145 1851.92 283.604 1857.24 277.064C1858.87 275.02 1869.91 263.574 1874.81 256.625C1877.68 252.538 1880.13 252.129 1885.44 250.902C1889.12 249.676 1889.94 250.902 1890.35 252.129C1891.17 254.581 1887.49 259.078 1886.26 261.122C1880.95 270.524 1872.36 277.064 1866.23 286.057C1858.06 298.32 1854.38 303.225 1851.51 318.35C1847.84 336.745 1850.7 362.088 1853.97 379.257C1857.24 396.016 1855.19 417.273 1853.97 428.309C1852.74 439.346 1855.6 448.339 1856.83 458.15C1858.46 471.639 1862.55 484.311 1867.87 496.166C1874.41 511.29 1883.4 525.597 1897.3 534.999C1899.75 536.634 1902.2 538.269 1905.06 539.495C1906.29 540.722 1894.03 547.671 1890.76 546.036Z" fill="black"/>
<path d="M1702.72 646.189C1612.38 646.189 1549.84 615.122 1511 551.762C1479.94 500.666 1464.81 427.496 1464.81 327.755C1464.81 233.738 1481.98 163.838 1517.14 114.785C1556.38 59.6012 1618.92 31.8047 1702.72 31.8047C1864.59 31.8047 1950.03 133.998 1950.03 327.347C1950.03 425.452 1933.27 499.031 1898.93 551.762C1858.46 614.304 1792.24 646.189 1702.72 646.189ZM1702.72 43.2503C1550.25 43.2503 1476.26 136.45 1476.26 327.755C1476.26 425.452 1490.97 496.987 1520.82 546.04C1557.2 605.72 1616.88 635.152 1702.72 635.152C1861.73 635.152 1938.99 534.594 1938.99 328.164C1938.99 239.052 1920.59 169.561 1883.8 121.734C1844.15 69.4117 1783.25 43.2503 1702.72 43.2503Z" fill="black"/>
</g>
<defs>
<clipPath id="clip0">
<rect width="3401.67" height="618" fill="white" transform="translate(0 30)"/>
</clipPath>
</defs>
</svg>
